<?xml version="1.0" encoding="UTF-8"?>
<svg width="111px" height="36px" viewBox="0 0 111 36" version="1.1" xmlns="http://www.w3.org/2000/svg" xmlns:xlink="http://www.w3.org/1999/xlink">
    <title>HER LOGO</title>
    <defs>
        <polygon id="path-1" points="0.162933351 0.0373193243 77.9332941 0.0373193243 77.9332941 31.8751741 0.162933351 31.8751741"></polygon>
        <polygon id="path-3" points="0 36 111 36 111 0 0 0"></polygon>
    </defs>
    <g id="Page-1" stroke="none" stroke-width="1" fill="none" fill-rule="evenodd">
        <g id="LAUNCH-" transform="translate(-419.000000, -126.000000)">
            <g id="HER-LOGO" transform="translate(419.000000, 126.000000)">
                <g id="Group-3" transform="translate(33.000000, 3.000000)">
                    <mask id="mask-2" fill="white">
                        <use xlink:href="#path-1"></use>
                    </mask>
                    <g id="Clip-2"></g>
                    <path d="M31.5512824,20.0905978 C26.9817529,24.1507347 19.0783412,27.5892758 12.8362235,25.3988237 C8.55963529,23.8981786 8.30869412,19.5001342 9.25351765,15.1290244 C15.8005765,13.765851 23.2349294,14.3304293 29.6249294,14.08347 C32.5095176,13.9722334 32.5239882,9.51437302 29.6249294,9.62630925 C23.4597529,9.86487334 16.8819882,9.56019692 10.6345765,10.478074 C11.0806941,9.25272209 11.5419882,8.13196058 11.9348118,7.20463887 C11.9983412,7.05457436 12.0417529,6.91010667 12.0717529,6.77018638 C12.1744588,6.76738797 12.2750471,6.77053618 12.3823412,6.75479515 C18.8983412,5.78689656 25.4411647,5.22126879 32.0252824,5.00579155 C34.9116353,4.91099555 34.9250471,0.453484984 32.0252824,0.54863078 C25.0356353,0.777750251 18.1024588,1.42977879 11.1872824,2.45679371 C9.91775294,2.64533629 9.45681176,3.60029226 9.58245882,4.56574224 C8.77245882,4.65319242 7.9854,5.10408555 7.59822353,6.01951403 C6.95445882,7.54044756 6.22387059,9.45735551 5.60869412,11.5404188 C4.45387059,11.8702809 3.31775294,12.2592593 2.20704706,12.7279922 C-0.447070588,13.8480541 1.84175294,17.688866 4.47716471,16.5764998 C4.47963529,16.5754503 4.48210588,16.5747507 4.48457647,16.5737013 C3.76457647,21.6556062 4.50010588,26.6892386 9.18892941,28.8912341 C17.5610471,32.823344 28.3162235,28.942305 34.7312824,23.2423023 C36.8909294,21.3232955 33.7017529,18.1799863 31.5512824,20.0905978 M46.1616353,15.2364132 C45.7105765,12.8833038 45.2750471,10.5277457 44.8656353,8.16729045 C44.8614,8.143504 44.8546941,8.12181636 44.8501059,8.09837971 C45.1137529,7.94096939 45.3781059,7.78355906 45.6615176,7.64084037 C47.0736353,6.92969551 53.8370471,4.55629762 55.3970471,5.40911178 C59.6139882,7.71394872 53.0076353,10.6547234 51.4857529,11.7030761 C49.7316353,12.9119874 47.9510471,14.079972 46.1616353,15.2364132 M70.5244588,22.0442348 C70.4072824,22.0057567 70.2901059,21.9669288 70.1729294,21.9288006 C69.2937529,21.640215 68.5561059,21.8200125 68.0192824,22.2506172 C62.2592824,21.8742316 56.8723412,19.9352863 51.4698706,17.9991393 C58.8795176,13.3705762 70.6176353,4.95507044 60.5852824,0.731226756 C56.3905765,-1.03491708 48.7981059,0.940757387 44.8250471,2.53969648 C39.9484588,4.50242831 36.2528118,8.13510879 35.3284588,13.3681276 C34.7672824,16.5453675 39.6752824,17.9099401 40.2403412,14.7099631 C40.3176353,14.2720126 40.4221059,13.8547004 40.5449294,13.4513801 C41.3051647,18.9694865 42.0876353,25.1119871 45.0128118,29.4855455 C46.8156353,32.1814597 51.2291647,29.6562483 49.4111647,26.9375971 C48.4063412,25.435203 47.8546941,23.6984424 47.4537529,21.9169073 C54.7988118,24.4452669 61.9306941,27.3332217 69.8602235,27.369601 C71.2024588,27.3755476 72.4543412,26.207563 72.4070471,24.845439 C72.4028118,24.7230087 72.3985765,24.6005785 72.3943412,24.4781482 C72.3541059,23.3150608 71.6231647,22.4045295 70.5244588,22.0442348 M4.59187059,27.1485269 C4.27316471,26.6525095 3.73245882,26.2967621 2.95598824,26.2967621 C1.81104706,26.2967621 1.16445882,27.0649245 1.01551765,27.9320805 C0.687988235,28.3504422 0.426105882,28.8345664 0.252105882,29.323238 C-0.104364706,30.3240178 0.655870588,31.5846996 1.68010588,31.8162677 C2.74069412,32.0555314 3.66116471,31.550769 4.09528235,30.623797 C4.51669412,30.4740823 4.88834118,30.1980896 5.11316471,29.7758801 C5.57516471,28.9090739 5.40963529,27.7435379 4.59187059,27.1485269 M73.5699882,27.9817522 C73.5050471,28.0552104 73.4471647,28.1325163 73.3949294,28.2129705 C73.3430471,28.2395553 73.4044588,28.0758486 73.6363412,27.8806598 C73.6137529,27.9138909 73.5918706,27.9478215 73.5699882,27.9817522 M77.7177529,27.6403467 C77.2861059,26.625225 76.2205765,25.8770013 75.0791647,25.9581551 C74.0146941,26.033712 72.9826941,26.8361549 73.0342235,27.9849004 C73.0444588,28.2087729 73.0945765,28.4343943 73.1757529,28.6498716 C73.0910471,28.8768923 73.0356353,29.121403 73.0066941,29.3823543 C72.9297529,30.0700625 73.4503412,30.8025452 74.0192824,31.1324073 C74.5882235,31.4626192 75.2048118,31.4657674 75.7892824,31.2555371 C76.9014,31.0239691 77.7869294,30.0308848 77.9044588,28.8653488 C77.9775176,28.4350939 77.9111647,28.0156829 77.7177529,27.6403467 M39.0883412,27.674977 C38.8832824,26.7815859 38.0514,26.023218 37.0938706,26.0655439 C35.9856353,26.1148658 35.0489294,26.9561365 35.0489294,28.0922892 L35.0489294,28.3623354 C35.0489294,28.7341736 35.1696353,29.0972667 35.3672824,29.4138364 C35.4339882,30.0273868 35.7325765,30.6084058 36.3290471,30.8683078 L37.0006941,31.1603914 C37.9776353,31.5853992 39.2422235,31.476961 39.7984588,30.4335055 C40.2629294,29.5625017 40.1108118,28.1423107 39.0883412,27.674977" id="Fill-1" fill="#FFFFFF" mask="url(#mask-2)"></path>
                </g>
                <mask id="mask-4" fill="white">
                    <use xlink:href="#path-3"></use>
                </mask>
                <g id="Clip-5"></g>
                <polygon id="Fill-4" fill="#FEFEFE" mask="url(#mask-4)" points="16 21 21 21 21 17 16 17"></polygon>
                <polygon id="Fill-6" fill="#AD1116" mask="url(#mask-4)" points="20 21 24 21 24 17 20 17"></polygon>
                <path d="M16.307334,19.7017106 L23.7678104,19.7017106 L23.7678104,17.2893179 L16.307334,17.2893179 L16.307334,19.7017106 Z M29.1058135,26.8960898 L29.1058135,7.50369561 C29.620522,7.43967135 30.906594,6.86380089 32,4.94342078 C29.170152,6.09585762 26.2759655,4.30352606 26.0189609,2.06372053 L21.012791,5.78199952 L23.7678104,7.50369561 L23.7678104,16.0926904 L16.307334,16.0926904 L16.307334,8.59141226 C16.307334,5.71171201 16.6933654,3.98340471 17.2073746,2.76763953 C14.3135377,4.94342078 13.0914546,6.67172808 13.0914546,8.97590583 L13.0914546,22.7999285 C13.0914546,25.6159524 11.5480283,27.5363325 8.78216928,28.111855 C11.3550126,26.7680413 12.2550532,25.4879039 12.3837304,22.6082036 L12.3837304,11.3437599 C12.3837304,8.20761461 12.7697618,6.60735585 13.5414749,5.45561493 C10.6476381,7.69576842 8.26781041,9.10360641 8.26781041,12.0476789 L8.26781041,25.4238796 C8.26781041,27.408284 7.94611758,28.0478308 7.56043584,28.3679521 C4.85891536,28.9441705 1.38568174,30.8001784 1,34 C4.88094432,30.1999509 10.9549946,30.4028104 15.3688301,32.8952334 L20.0333762,29.4107822 C18.4871526,28.3919612 14.7925803,27.3627015 11.8693715,27.6000088 C14.763558,26.3202194 16.2429954,25.040082 16.307334,21.520139 L16.307334,20.9046014 L23.7678104,20.9046014 L23.7678104,28.0478308 C23.7678104,28.0478308 23.7031222,30.22396 24.7325393,31.5040974 C25.0542321,31.9522673 25.9546224,32.8479111 27.241044,33.8722994 L31.8716725,30.4160328 C30.906594,30.0322351 29.1058135,28.816122 29.1058135,26.8960898 L29.1058135,26.8960898 Z M8.52481502,4.55962313 C10.5186113,5.07146932 12.4949242,4.53770178 13.5236419,4.21758044 C14.8740525,3.83343482 16.3069843,2.76763953 17.2073746,1.8072755 C15.6639483,2.57556672 11.1616473,0.52748604 7.81744044,1.10370446 C4.79457679,1.61555065 3.76585905,4.75134798 3.76585905,4.75134798 L3.25115051,6.35160674 L4.15154079,4.94342078 C5.05228073,3.85535618 5.95232133,3.9197284 8.52481502,4.55962313 L8.52481502,4.55962313 Z" id="Fill-7" fill="#FFFFFF" mask="url(#mask-4)"></path>
            </g>
        </g>
    </g>
</svg>