<?xml version="1.0" encoding="UTF-8"?>
<svg width="147px" height="11px" viewBox="0 0 147 11" version="1.1" xmlns="http://www.w3.org/2000/svg" xmlns:xlink="http://www.w3.org/1999/xlink">
    <title>Group 3</title>
    <defs>
        <polygon id="path-1" points="0 0 147 0 147 11 0 11"></polygon>
    </defs>
    <g id="Page-1" stroke="none" stroke-width="1" fill="none" fill-rule="evenodd">
        <g id="LAUNCH-" transform="translate(-412.000000, -409.000000)">
            <g id="Group-3" transform="translate(412.000000, 409.000000)">
                <mask id="mask-2" fill="white">
                    <use xlink:href="#path-1"></use>
                </mask>
                <g id="Clip-2"></g>
                <path d="M65.3630769,3.53549946 C65.3239077,3.47649946 65.2806154,3.36549946 65.2486615,3.36849946 C65.0785846,3.38649946 64.9126308,3.43249946 64.7446154,3.46849946 C64.7837846,3.52549946 64.8281077,3.63449946 64.8621231,3.63149946 C65.0311692,3.61549946 65.1960923,3.57049946 65.3630769,3.53549946 L65.3630769,3.53549946 Z M68.6615385,2.6695 C68.1052933,2.2175 68.1052933,2.2175 67.6307692,2.6695 L68.6615385,2.6695 Z M133.6,2.69632457 C133.489909,2.61535244 133.431777,2.53300205 133.366443,2.53024556 C131.321533,2.44548324 129.277137,2.35658617 127.230683,2.29422039 C125.450711,2.24012412 123.668166,2.21703844 121.886651,2.18051484 C119.246016,2.12641857 116.60538,2.03786606 113.964231,2.02511726 C108.298157,1.9982414 102.631569,1.97481116 96.9654955,2.05612786 C94.1108522,2.09713077 91.2562088,2.11573713 88.4010509,2.14674774 C87.2126879,2.15949654 86.0227816,2.16156392 84.835962,2.19912121 C83.0616486,2.25528486 81.2904218,2.34969492 79.5166229,2.40792595 C76.3924114,2.51060551 73.2671711,2.59674608 70.1429596,2.69735826 C70.0328689,2.70114845 69.9289514,2.78522164 69.6923077,2.88893489 C70.0555043,2.94337573 70.2612815,3.002985 70.4644864,2.99988394 C71.5911163,2.98162214 72.7172317,2.93441711 73.8438615,2.92235743 C75.8985463,2.90065 77.953231,2.90133913 80.0074013,2.88445558 C83.7828974,2.8541341 87.5583935,2.80486169 91.3333752,2.78866726 C94.8928053,2.77385109 98.4527498,2.7855662 102.01218,2.79590307 C106.765117,2.81037469 111.518055,2.84172986 116.270992,2.85344497 C120.701889,2.86481553 125.132785,2.87342958 129.563681,2.85516778 C130.894545,2.84965479 132.238784,2.87687521 133.6,2.69632457 L133.6,2.69632457 Z M147,2.56538053 C146.632458,3.6292568 145.979452,4.1255987 145.033754,4.21734675 C143.632242,4.35421679 142.22815,4.50211665 140.821992,4.54523321 C137.803193,4.63798397 134.783877,4.7277266 131.765078,4.80443398 C128.366348,4.89016577 124.963488,4.80944754 121.563725,4.86610071 C119.30995,4.90370236 117.059272,4.94330945 114.805496,4.85005733 C114.185528,4.8244882 113.557299,4.99344499 112.615215,5.11326894 C113.235184,5.42862152 113.594983,5.30829622 113.923293,5.34238839 C116.188425,5.57802545 118.45717,5.78709067 120.718688,6.05331042 C122.006634,6.20522112 123.290449,6.4147877 124.56136,6.66646814 C125.243274,6.8008314 125.894732,7.07908368 126.464628,7.26157707 C127.012844,8.25075138 126.372226,8.73405803 125.728512,9.35874693 C124.178848,9.1351424 122.540395,8.87945112 120.896265,8.66988454 C119.936113,8.54705245 118.967186,8.48137489 118.000324,8.41920681 C114.934033,8.22167276 111.86671,8.03065633 108.798871,7.85066972 C105.28709,7.64461263 101.771696,7.5819432 98.2537213,7.58946353 C96.9652598,7.59197031 95.6762821,7.44808129 94.3867881,7.38591322 C93.9567847,7.36485629 93.5242003,7.39493762 93.0931644,7.39142813 C90.5725083,7.37237662 88.051336,7.4029593 85.5322285,7.41599455 C83.7229105,7.42501894 81.8950089,7.51526293 80.0939503,7.47916533 C77.7121548,7.43103521 75.3391349,7.54634696 72.9650826,7.58444998 C70.264269,7.62756655 67.5655202,7.60951775 64.865739,7.62505977 C64.3789525,7.6280679 63.8901011,7.67168583 63.4053794,7.7248295 C62.5500185,7.81858297 61.7024008,7.82309517 60.8377481,7.78649623 C59.3257674,7.72282408 57.8065597,7.82008704 56.2904493,7.85819006 C55.3767567,7.88075105 54.4635802,7.92136084 53.5498875,7.95043946 C51.0679472,8.02915227 48.5870393,8.13894911 46.1045827,8.17404399 C43.1281127,8.21615785 40.1666127,8.52900365 37.1849806,8.52198468 C35.0313502,8.51646977 32.8772035,8.77817731 30.7235731,8.91855684 C29.7050897,8.98473576 28.6866063,9.05041333 27.6676066,9.10656514 C25.61154,9.21886876 23.5539247,9.29958699 21.499923,9.43946516 C19.2342748,9.59388264 16.9732726,9.80244651 14.7096893,9.98243311 C13.6602333,10.0656581 13.4155495,9.88065796 13.1605415,8.82831286 C13.0985962,8.57262158 13.0531697,8.31342081 13,8.05522275 C13.304048,7.46613009 13.8894308,7.22096727 14.4655218,7.17484257 C17.8859329,6.90009978 21.1576754,5.86580348 24.5342086,5.3759792 C28.0201784,4.87011155 31.4947917,4.28152025 34.9895371,3.84634371 C38.4269832,3.41868751 41.8830128,3.13542168 45.3318155,2.79500132 C47.2732834,2.60298219 49.2142351,2.39993323 51.1588002,2.24501439 C53.8033469,2.0344451 56.4499584,1.84794087 59.0981185,1.68199222 C62.1241448,1.49247985 65.1532683,1.34357728 68.180327,1.16409203 C71.8562623,0.946002409 75.5296166,0.661733867 79.2086492,0.504308254 C82.7772128,0.351394841 86.3509384,0.310785049 89.9225992,0.243102063 C94.9117742,0.148345882 99.9009492,0.0320314164 104.89064,0.00445686642 C109.122018,-0.0186054845 113.354429,0.0520856346 117.585807,0.11876591 C120.83432,0.169904166 124.083349,0.239091219 127.328764,0.375459902 C130.255678,0.498291989 133.176914,0.745961583 136.102795,0.895866864 C138.705529,1.02922741 141.29639,1.26586719 143.875894,1.61430923 C144.624915,1.71558303 145.369291,1.87351 146.100761,2.06151829 C146.396034,2.13772432 146.650525,2.36333428 147,2.56538053 L147,2.56538053 Z" id="Fill-1" fill="#FF5334" mask="url(#mask-2)"></path>
            </g>
        </g>
    </g>
</svg>